<svg width="35" height="22" viewBox="0 0 35 22" fill="none" xmlns="http://www.w3.org/2000/svg">
<path d="M16.009 15.0858C17.5005 14.1099 18.6329 12.6881 19.2387 11.0308C19.8445 9.37342 19.8915 7.56847 19.3728 5.88283C18.8541 4.19719 17.7972 2.72034 16.3585 1.6707C14.9197 0.621048 13.1755 0.0543213 11.3836 0.0543213C9.5918 0.0543213 7.84754 0.621048 6.40878 1.6707C4.97002 2.72034 3.91315 4.19719 3.39446 5.88283C2.87576 7.56847 2.92278 9.37342 3.52857 11.0308C4.13435 12.6881 5.26673 14.1099 6.75826 15.0858C4.06023 16.0631 1.75605 17.8716 0.18954 20.2414C0.107209 20.3617 0.0500222 20.4969 0.0213031 20.639C-0.00741601 20.7812 -0.00709446 20.9276 0.0222491 21.0696C0.0515926 21.2117 0.109373 21.3466 0.192231 21.4665C0.275089 21.5864 0.381372 21.6889 0.504903 21.7681C0.628434 21.8473 0.766747 21.9016 0.911804 21.9278C1.05686 21.9539 1.20577 21.9515 1.34987 21.9207C1.49397 21.8898 1.63039 21.8311 1.7512 21.7479C1.87201 21.6648 1.9748 21.5589 2.0536 21.4364C3.06407 19.9089 4.44677 18.6538 6.07612 17.7848C7.70548 16.9159 9.52987 16.4608 11.3836 16.4608C13.2374 16.4608 15.0618 16.9159 16.6911 17.7848C18.3205 18.6538 19.7032 19.9089 20.7137 21.4364C20.8769 21.6748 21.129 21.8405 21.4156 21.8977C21.7021 21.9549 22.0001 21.8989 22.245 21.7419C22.4899 21.5849 22.6621 21.3395 22.7243 21.0587C22.7866 20.7779 22.7339 20.4844 22.5777 20.2414C21.0112 17.8716 18.707 16.0631 16.009 15.0858ZM5.26284 8.26078C5.26284 7.071 5.62182 5.90794 6.29438 4.91867C6.96694 3.92941 7.92288 3.15837 9.04131 2.70306C10.1597 2.24775 11.3904 2.12862 12.5777 2.36074C13.7651 2.59285 14.8557 3.16579 15.7117 4.00709C16.5677 4.84839 17.1506 5.92027 17.3868 7.08718C17.623 8.2541 17.5018 9.46364 17.0385 10.5629C16.5752 11.6621 15.7907 12.6016 14.7842 13.2626C13.7776 13.9236 12.5942 14.2764 11.3836 14.2764C9.76086 14.2746 8.20509 13.6402 7.05761 12.5125C5.91014 11.3847 5.26468 9.85566 5.26284 8.26078ZM34.4952 21.7549C34.248 21.9133 33.9469 21.9688 33.6581 21.909C33.3693 21.8493 33.1165 21.6793 32.9553 21.4364C31.946 19.908 30.5635 18.6523 28.9338 17.7838C27.3041 16.9152 25.4791 16.4615 23.6252 16.4639C23.3301 16.4639 23.047 16.3487 22.8383 16.1436C22.6296 15.9384 22.5123 15.6602 22.5123 15.3702C22.5123 15.0801 22.6296 14.8019 22.8383 14.5968C23.047 14.3916 23.3301 14.2764 23.6252 14.2764C24.5266 14.2756 25.4167 14.0791 26.2318 13.701C27.047 13.3229 27.7671 12.7725 28.3408 12.0891C28.9144 11.4058 29.3274 10.6064 29.5502 9.74797C29.7731 8.88957 29.8003 7.9934 29.6299 7.12348C29.4594 6.25356 29.0956 5.43137 28.5644 4.71565C28.0332 3.99994 27.3477 3.40836 26.557 2.9832C25.7662 2.55804 24.8896 2.30979 23.9898 2.25618C23.0901 2.20257 22.1894 2.34492 21.3522 2.67308C21.2157 2.73108 21.0687 2.7616 20.92 2.76283C20.7713 2.76407 20.6238 2.73599 20.4863 2.68027C20.3488 2.62455 20.2241 2.5423 20.1195 2.4384C20.0149 2.3345 19.9325 2.21104 19.8773 2.07533C19.8221 1.93962 19.7951 1.7944 19.7979 1.64826C19.8008 1.50212 19.8334 1.35802 19.8938 1.22448C19.9543 1.09094 20.0414 0.970657 20.1499 0.87075C20.2585 0.770843 20.3863 0.693335 20.5259 0.642806C22.442 -0.108257 24.5733 -0.135285 26.5086 0.566936C28.4438 1.26916 30.0459 2.65087 31.0058 4.44552C31.9656 6.24018 32.2152 8.32061 31.7065 10.2855C31.1977 12.2503 29.9666 13.9604 28.2506 15.0858C30.9486 16.0631 33.2528 17.8716 34.8193 20.2414C34.9805 20.4844 35.0369 20.7803 34.9761 21.0641C34.9154 21.348 34.7424 21.5964 34.4952 21.7549Z" fill="#FEAA53"/>
</svg>
