<svg width="190" height="44" viewBox="0 0 190 44" fill="none" xmlns="http://www.w3.org/2000/svg">
<path d="M6.16251 26.6887C7.26825 27.6701 8.57949 28.4519 10.0231 28.9905C10.2696 29.0816 10.4744 29.2432 10.6046 29.4495C10.7347 29.6558 10.7827 29.8947 10.7407 30.128L10.7023 30.3407C10.673 30.498 10.6038 30.6474 10.4997 30.7776C10.3957 30.9078 10.2596 31.0154 10.1017 31.0924C9.94382 31.1694 9.76821 31.2137 9.58813 31.222C9.40804 31.2303 9.22818 31.2024 9.06207 31.1404C6.83195 30.3171 4.86495 29.0219 3.33425 27.3686C1.80354 25.7154 0.75606 23.755 0.283996 21.6598C-0.188069 19.5646 -0.0702391 17.399 0.627119 15.3535C1.32448 13.3081 2.57997 11.4455 4.2831 9.92977C4.52011 9.71457 4.84095 9.58726 5.18037 9.57371C5.51979 9.56017 5.85229 9.66141 6.11027 9.85686C6.24249 9.96167 6.34918 10.0892 6.4238 10.2317C6.49843 10.3741 6.53945 10.5285 6.54434 10.6855C6.54923 10.8424 6.5179 10.9986 6.45225 11.1445C6.3866 11.2903 6.28801 11.4229 6.16251 11.534C3.88916 13.5437 2.61203 16.2693 2.61203 19.1113C2.61203 21.9534 3.88916 24.679 6.16251 26.6887Z" fill="white"/>
<path d="M29.4535 19.7002C29.3251 22.168 28.4071 24.5529 26.8062 26.5779C25.2053 28.6029 22.9873 30.1848 20.4098 31.1398C20.2437 31.202 20.0638 31.2302 19.8837 31.2221C19.7035 31.2139 19.5278 31.1698 19.3697 31.0929C19.2116 31.016 19.0754 30.9084 18.9712 30.7783C18.867 30.6481 18.7976 30.4987 18.7683 30.3413L18.7298 30.1287C18.6876 29.8954 18.7354 29.6563 18.8656 29.45C18.9958 29.2436 19.2007 29.082 19.4474 28.9911C21.1856 28.3404 22.7281 27.3403 23.9524 26.0703C25.1768 24.8003 26.0491 23.2954 26.5003 21.6752C26.9514 20.055 26.9688 18.3641 26.5512 16.7369C26.1335 15.1097 25.2923 13.591 24.0944 12.3015C23.9852 12.1846 23.9031 12.0498 23.8528 11.9048C23.8024 11.7599 23.7849 11.6076 23.8012 11.4566C23.8175 11.3057 23.8672 11.1591 23.9476 11.0251C24.028 10.8912 24.1375 10.7726 24.2697 10.676C24.402 10.5794 24.5544 10.5069 24.7184 10.4624C24.8824 10.4179 25.0547 10.4024 25.2254 10.4168C25.3962 10.4312 25.5621 10.4752 25.7136 10.5462C25.8651 10.6173 25.9993 10.714 26.1086 10.8309C28.4306 13.3177 29.623 16.4792 29.4535 19.7002Z" fill="white"/>
<path d="M21.883 12.8299C20.8649 11.9301 19.6409 11.233 18.2933 10.7852C16.9456 10.3374 15.5053 10.1493 14.0687 10.2334C12.6321 10.3175 11.2324 10.6719 9.96333 11.273C8.69425 11.874 7.58506 12.7077 6.71002 13.7183C5.83499 14.729 5.21429 15.8932 4.88949 17.133C4.56468 18.3729 4.54326 19.6597 4.82667 20.9075C5.11007 22.1553 5.69175 23.3351 6.53278 24.368C7.37381 25.401 8.45477 26.2632 9.7033 26.897C9.87009 26.9815 10.0576 27.029 10.2497 27.0354C10.4418 27.0418 10.6328 27.007 10.8064 26.9339C10.9799 26.8608 11.1308 26.7515 11.2462 26.6156C11.3615 26.4796 11.4378 26.3209 11.4686 26.1532C11.5061 25.9401 11.4692 25.7219 11.3628 25.5278C11.2565 25.3337 11.0857 25.1729 10.8733 25.0667C9.40246 24.315 8.25325 23.1554 7.60381 21.7676C6.95436 20.3799 6.84097 18.8415 7.28121 17.391C7.72144 15.9405 8.6907 14.6588 10.0387 13.7448C11.3868 12.8307 13.0383 12.3353 14.7373 12.3353C16.4363 12.3353 18.0878 12.8307 19.4358 13.7448C20.7839 14.6588 21.7531 15.9405 22.1934 17.391C22.6336 18.8415 22.5202 20.3799 21.8708 21.7676C21.2213 23.1554 20.0721 24.315 18.6013 25.0667C18.3884 25.1724 18.2171 25.3332 18.1105 25.5274C18.0038 25.7215 17.9669 25.9399 18.0046 26.1532C18.0354 26.3211 18.1118 26.4799 18.2272 26.616C18.3426 26.7521 18.4936 26.8614 18.6672 26.9347C18.8409 27.0079 19.0321 27.0428 19.2243 27.0365C19.4166 27.0301 19.6043 26.9827 19.7713 26.8982C21.1163 26.2137 22.265 25.2648 23.1287 24.125C23.9923 22.9851 24.5477 21.685 24.7519 20.325C24.9561 18.9651 24.8035 17.5818 24.306 16.2824C23.8085 14.9829 22.9795 13.802 21.883 12.8311V12.8299ZM14.7339 1.60508e-06C13.128 1.60508e-06 11.8219 0.687855 11.8219 1.53735V5.83343C11.8219 6.42406 12.4571 6.92719 13.381 7.1897V10.8648H13.3879H16.0757V7.19942C17.001 6.93935 17.6362 6.43379 17.6362 5.84315V1.53735C17.6499 0.687855 16.3424 -0.00121369 14.7339 1.60508e-06Z" fill="white"/>
<path d="M14.7368 37.9999C14.6778 37.9992 14.6196 37.988 14.5655 37.9672C14.5115 37.9463 14.4627 37.9161 14.422 37.8784L11.7506 35.5183C11.701 35.474 11.6639 35.42 11.6424 35.3607C11.6209 35.3013 11.6156 35.2383 11.6269 35.1768L14.048 21.9495L12.137 19.322C12.1031 19.2757 12.0807 19.2235 12.0712 19.169C12.0617 19.1145 12.0653 19.0588 12.0818 19.0056C12.0983 18.9524 12.1273 18.9029 12.1669 18.8602C12.2064 18.8176 12.2558 18.7828 12.3116 18.7581C13.0786 18.471 13.9031 18.323 14.7361 18.323C15.5691 18.323 16.3936 18.471 17.1606 18.7581C17.216 18.7823 17.265 18.8164 17.3045 18.8582C17.344 18.9001 17.3732 18.9488 17.3902 19.0012C17.407 19.0543 17.4108 19.1099 17.4013 19.1644C17.3918 19.2189 17.3693 19.271 17.3352 19.3172L15.4256 21.9446L17.8467 35.1719C17.8575 35.2335 17.8518 35.2965 17.8301 35.3558C17.8084 35.4151 17.7712 35.4691 17.7216 35.5134L15.0516 37.8735C14.969 37.9493 14.8558 37.993 14.7368 37.9951V37.9999Z" fill="white"/>
<path d="M44.6617 13.1806L44.6945 13.7057L44.782 20.9576C44.782 21.5774 44.9971 22.1863 45.4274 22.7842C45.8357 23.229 46.4482 23.4514 47.265 23.4514C48.5192 23.4514 49.314 22.8827 49.6494 21.7451C49.7588 21.4388 49.8135 21.0852 49.8135 20.6841V13.2025H52.3621V20.7388C52.3621 22.3503 51.8042 23.703 50.6886 24.7968C49.7771 25.5989 48.6286 26 47.2431 26C45.6388 26 44.3591 25.4604 43.4038 24.3812C42.4705 25.4604 41.1725 26 39.5099 26C37.366 26 35.8457 25.0484 34.9487 23.1452C34.6133 22.3722 34.4456 21.6248 34.4456 20.9029V13.2025H36.9942V20.8263C36.9942 21.6868 37.3114 22.4123 37.9458 23.003C38.3687 23.302 38.9192 23.4514 39.5974 23.4514C40.6985 23.4514 41.4459 23.003 41.8397 22.1061C42.022 21.6467 42.1131 21.2383 42.1131 20.881V13.2025H42.2335L44.6617 13.1806ZM59.8656 13.2025C61.2365 13.2025 62.5053 13.6218 63.672 14.4604H63.7048V13.2025H66.2534V26H63.7048V24.7421C62.5162 25.5807 61.3021 26 60.0624 26H59.7234C57.8056 26 56.1466 25.1614 54.7466 23.4843C53.8861 22.2738 53.4559 20.9831 53.4559 19.6122C53.4559 17.4902 54.371 15.7365 56.2013 14.351C57.3316 13.5853 58.553 13.2025 59.8656 13.2025ZM56.0044 19.5903C56.0044 21.0196 56.6862 22.1571 58.0498 23.003C58.6259 23.302 59.2129 23.4514 59.8109 23.4514H59.9749C61.1344 23.4514 62.1443 22.9118 63.0048 21.8326C63.4715 21.1253 63.7048 20.4253 63.7048 19.7325V19.5575C63.7048 18.2231 63.0704 17.1329 61.8016 16.287C61.1526 15.9297 60.5 15.7511 59.8437 15.7511C58.6186 15.7511 57.5832 16.2907 56.7373 17.3699C56.2487 18.0918 56.0044 18.8319 56.0044 19.5903ZM67.3472 13.2025H69.8957V14.3182H69.9285C71.0005 13.5744 72.2693 13.2025 73.735 13.2025C76.5789 13.2025 78.555 14.4823 79.6634 17.0418C79.9842 17.8803 80.1447 18.7007 80.1447 19.5028V26H77.5961V19.5903C77.5961 18.5621 77.268 17.6543 76.6117 16.8667C75.9262 16.123 74.9673 15.7511 73.735 15.7511C71.9849 15.7511 70.8072 16.5058 70.202 18.0152C69.9978 18.5476 69.8957 19.0981 69.8957 19.6669V26H67.3472V13.2025ZM91.4874 6.79283H94.036V26H91.4874V24.7421C90.2988 25.5807 89.0373 26 87.7028 26H87.5716C85.5079 26 83.7688 25.0849 82.3541 23.2546C81.6104 22.1024 81.2385 20.881 81.2385 19.5903C81.2385 17.4902 82.1536 15.7365 83.9839 14.3291C85.1215 13.5781 86.3611 13.2025 87.7028 13.2025C89.0446 13.2025 90.2951 13.6218 91.4546 14.4604H91.4874V6.79283ZM83.787 19.6122C83.787 20.9685 84.4214 22.0696 85.6902 22.9155C86.2882 23.2728 86.9591 23.4514 87.7028 23.4514C88.9716 23.4514 90.029 22.8644 90.8749 21.6904C91.2832 21.0268 91.4874 20.3633 91.4874 19.6997V19.5028C91.4874 18.3069 90.9259 17.2824 89.8029 16.4292C89.1321 15.9771 88.3956 15.7511 87.5935 15.7511C86.3465 15.7511 85.2928 16.3308 84.4324 17.4902C84.0021 18.1684 83.787 18.8757 83.787 19.6122ZM101.539 13.2025C102.91 13.2025 104.179 13.6218 105.346 14.4604H105.379V13.2025H107.927V26H105.379V24.7421C104.19 25.5807 102.976 26 101.736 26H101.397C99.4795 26 97.8205 25.1614 96.4205 23.4843C95.56 22.2738 95.1298 20.9831 95.1298 19.6122C95.1298 17.4902 96.0449 15.7365 97.8752 14.351C99.0055 13.5853 100.227 13.2025 101.539 13.2025ZM97.6783 19.5903C97.6783 21.0196 98.3601 22.1571 99.7237 23.003C100.3 23.302 100.887 23.4514 101.485 23.4514H101.649C102.808 23.4514 103.818 22.9118 104.679 21.8326C105.145 21.1253 105.379 20.4253 105.379 19.7325V19.5575C105.379 18.2231 104.744 17.1329 103.475 16.287C102.826 15.9297 102.174 15.7511 101.518 15.7511C100.293 15.7511 99.2571 16.2907 98.4112 17.3699C97.9226 18.0918 97.6783 18.8319 97.6783 19.5903Z" fill="white"/>
<path d="M116.483 13.2017V19.1817H123.943V20.1017H116.483V26.2817H115.463V12.2817H124.823V13.2017H116.483ZM131.47 26.3617C130.483 26.3617 129.59 26.1351 128.79 25.6817C128.003 25.2284 127.383 24.6017 126.93 23.8017C126.476 22.9884 126.25 22.0751 126.25 21.0617C126.25 20.0484 126.476 19.1417 126.93 18.3417C127.383 17.5284 128.003 16.8951 128.79 16.4417C129.59 15.9884 130.483 15.7617 131.47 15.7617C132.456 15.7617 133.343 15.9884 134.13 16.4417C134.93 16.8951 135.556 17.5284 136.01 18.3417C136.463 19.1417 136.69 20.0484 136.69 21.0617C136.69 22.0751 136.463 22.9884 136.01 23.8017C135.556 24.6017 134.93 25.2284 134.13 25.6817C133.343 26.1351 132.456 26.3617 131.47 26.3617ZM131.47 25.4617C132.27 25.4617 132.983 25.2751 133.61 24.9017C134.25 24.5284 134.75 24.0084 135.11 23.3417C135.483 22.6751 135.67 21.9151 135.67 21.0617C135.67 20.2084 135.483 19.4484 135.11 18.7817C134.75 18.1151 134.25 17.5951 133.61 17.2217C132.983 16.8484 132.27 16.6617 131.47 16.6617C130.67 16.6617 129.95 16.8484 129.31 17.2217C128.683 17.5951 128.183 18.1151 127.81 18.7817C127.45 19.4484 127.27 20.2084 127.27 21.0617C127.27 21.9151 127.45 22.6751 127.81 23.3417C128.183 24.0084 128.683 24.5284 129.31 24.9017C129.95 25.2751 130.67 25.4617 131.47 25.4617ZM140.752 18.1217C141.072 17.3617 141.572 16.7817 142.252 16.3817C142.932 15.9684 143.759 15.7617 144.732 15.7617V16.7417L144.492 16.7217C143.332 16.7217 142.425 17.0884 141.772 17.8217C141.119 18.5417 140.792 19.5484 140.792 20.8417V26.2817H139.792V15.8417H140.752V18.1217ZM156.803 15.8417V26.2817H155.843V24.0417C155.496 24.7751 154.983 25.3484 154.303 25.7617C153.623 26.1617 152.823 26.3617 151.903 26.3617C150.543 26.3617 149.476 25.9817 148.703 25.2217C147.93 24.4617 147.543 23.3684 147.543 21.9417V15.8417H148.543V21.8617C148.543 23.0351 148.843 23.9284 149.443 24.5417C150.043 25.1551 150.89 25.4617 151.983 25.4617C153.156 25.4617 154.083 25.0951 154.763 24.3617C155.456 23.6284 155.803 22.6417 155.803 21.4017V15.8417H156.803ZM174.042 15.7617C175.335 15.7617 176.349 16.1417 177.082 16.9017C177.829 17.6617 178.202 18.7551 178.202 20.1817V26.2817H177.202V20.2617C177.202 19.0884 176.915 18.1951 176.342 17.5817C175.769 16.9684 174.969 16.6617 173.942 16.6617C172.769 16.6617 171.835 17.0284 171.142 17.7617C170.462 18.4951 170.122 19.4817 170.122 20.7217V26.2817H169.122V20.2617C169.122 19.0884 168.835 18.1951 168.262 17.5817C167.689 16.9684 166.889 16.6617 165.862 16.6617C164.689 16.6617 163.755 17.0284 163.062 17.7617C162.382 18.4951 162.042 19.4817 162.042 20.7217V26.2817H161.042V15.8417H162.002V18.0817C162.349 17.3484 162.862 16.7817 163.542 16.3817C164.235 15.9684 165.055 15.7617 166.002 15.7617C166.949 15.7617 167.749 15.9751 168.402 16.4017C169.069 16.8284 169.542 17.4551 169.822 18.2817C170.169 17.5084 170.709 16.8951 171.442 16.4417C172.189 15.9884 173.055 15.7617 174.042 15.7617Z" fill="white"/>
</svg>
